<?xml version="1.0" encoding="utf-8" standalone="no"?>
<!DOCTYPE svg PUBLIC "-//W3C//DTD SVG 1.1//EN"
  "http://www.w3.org/Graphics/SVG/1.1/DTD/svg11.dtd">
<!-- Created with matplotlib (https://matplotlib.org/) -->
<svg height="345.6pt" version="1.1" viewBox="0 0 460.8 345.6" width="460.8pt" xmlns="http://www.w3.org/2000/svg" xmlns:xlink="http://www.w3.org/1999/xlink">
 <metadata>
  <rdf:RDF xmlns:cc="http://creativecommons.org/ns#" xmlns:dc="http://purl.org/dc/elements/1.1/" xmlns:rdf="http://www.w3.org/1999/02/22-rdf-syntax-ns#">
   <cc:Work>
    <dc:type rdf:resource="http://purl.org/dc/dcmitype/StillImage"/>
    <dc:date>2021-05-21T09:00:59.538107</dc:date>
    <dc:format>image/svg+xml</dc:format>
    <dc:creator>
     <cc:Agent>
      <dc:title>Matplotlib v3.3.3, https://matplotlib.org/</dc:title>
     </cc:Agent>
    </dc:creator>
   </cc:Work>
  </rdf:RDF>
 </metadata>
 <defs>
  <style type="text/css">*{stroke-linecap:butt;stroke-linejoin:round;}</style>
 </defs>
 <g id="figure_1">
  <g id="patch_1">
   <path d="M 0 345.6 
L 460.8 345.6 
L 460.8 0 
L 0 0 
z
" style="fill:#ffffff;"/>
  </g>
  <g id="axes_1">
   <g id="patch_2">
    <path d="M 57.6 162.432 
L 219.927273 162.432 
L 219.927273 41.472 
L 57.6 41.472 
z
" style="fill:#ffffff;"/>
   </g>
   <g id="PathCollection_1">
    <defs>
     <path d="M 0 3 
C 0.795609 3 1.55874 2.683901 2.12132 2.12132 
C 2.683901 1.55874 3 0.795609 3 0 
C 3 -0.795609 2.683901 -1.55874 2.12132 -2.12132 
C 1.55874 -2.683901 0.795609 -3 0 -3 
C -0.795609 -3 -1.55874 -2.683901 -2.12132 -2.12132 
C -2.683901 -1.55874 -3 -0.795609 -3 0 
C -3 0.795609 -2.683901 1.55874 -2.12132 2.12132 
C -1.55874 2.683901 -0.795609 3 0 3 
z
" id="md75e2c1638" style="stroke:#1f77b4;"/>
    </defs>
    <g clip-path="url(#p3bfa185fcf)">
     <use style="fill:#1f77b4;stroke:#1f77b4;" x="64.978512" xlink:href="#md75e2c1638" y="156.933818"/>
     <use style="fill:#1f77b4;stroke:#1f77b4;" x="81.375207" xlink:href="#md75e2c1638" y="144.715636"/>
     <use style="fill:#1f77b4;stroke:#1f77b4;" x="97.771901" xlink:href="#md75e2c1638" y="132.497455"/>
     <use style="fill:#1f77b4;stroke:#1f77b4;" x="114.168595" xlink:href="#md75e2c1638" y="120.279273"/>
     <use style="fill:#1f77b4;stroke:#1f77b4;" x="130.565289" xlink:href="#md75e2c1638" y="108.061091"/>
     <use style="fill:#1f77b4;stroke:#1f77b4;" x="146.961983" xlink:href="#md75e2c1638" y="95.842909"/>
     <use style="fill:#1f77b4;stroke:#1f77b4;" x="163.358678" xlink:href="#md75e2c1638" y="83.624727"/>
     <use style="fill:#1f77b4;stroke:#1f77b4;" x="179.755372" xlink:href="#md75e2c1638" y="71.406545"/>
     <use style="fill:#1f77b4;stroke:#1f77b4;" x="196.152066" xlink:href="#md75e2c1638" y="59.188364"/>
     <use style="fill:#1f77b4;stroke:#1f77b4;" x="212.54876" xlink:href="#md75e2c1638" y="46.970182"/>
    </g>
   </g>
   <g id="matplotlib.axis_1">
    <g id="xtick_1">
     <g id="line2d_1">
      <defs>
       <path d="M 0 0 
L 0 3.5 
" id="mfc0ad68742" style="stroke:#000000;stroke-width:0.8;"/>
      </defs>
      <g>
       <use style="stroke:#000000;stroke-width:0.8;" x="64.978512" xlink:href="#mfc0ad68742" y="162.432"/>
      </g>
     </g>
     <g id="text_1">
      <!-- 0 -->
      <g transform="translate(61.797262 177.030437)scale(0.1 -0.1)">
       <defs>
        <path d="M 31.78125 66.40625 
Q 24.171875 66.40625 20.328125 58.90625 
Q 16.5 51.421875 16.5 36.375 
Q 16.5 21.390625 20.328125 13.890625 
Q 24.171875 6.390625 31.78125 6.390625 
Q 39.453125 6.390625 43.28125 13.890625 
Q 47.125 21.390625 47.125 36.375 
Q 47.125 51.421875 43.28125 58.90625 
Q 39.453125 66.40625 31.78125 66.40625 
z
M 31.78125 74.21875 
Q 44.046875 74.21875 50.515625 64.515625 
Q 56.984375 54.828125 56.984375 36.375 
Q 56.984375 17.96875 50.515625 8.265625 
Q 44.046875 -1.421875 31.78125 -1.421875 
Q 19.53125 -1.421875 13.0625 8.265625 
Q 6.59375 17.96875 6.59375 36.375 
Q 6.59375 54.828125 13.0625 64.515625 
Q 19.53125 74.21875 31.78125 74.21875 
z
" id="DejaVuSans-48"/>
       </defs>
       <use xlink:href="#DejaVuSans-48"/>
      </g>
     </g>
    </g>
    <g id="xtick_2">
     <g id="line2d_2">
      <g>
       <use style="stroke:#000000;stroke-width:0.8;" x="97.771901" xlink:href="#mfc0ad68742" y="162.432"/>
      </g>
     </g>
     <g id="text_2">
      <!-- 2 -->
      <g transform="translate(94.590651 177.030437)scale(0.1 -0.1)">
       <defs>
        <path d="M 19.1875 8.296875 
L 53.609375 8.296875 
L 53.609375 0 
L 7.328125 0 
L 7.328125 8.296875 
Q 12.9375 14.109375 22.625 23.890625 
Q 32.328125 33.6875 34.8125 36.53125 
Q 39.546875 41.84375 41.421875 45.53125 
Q 43.3125 49.21875 43.3125 52.78125 
Q 43.3125 58.59375 39.234375 62.25 
Q 35.15625 65.921875 28.609375 65.921875 
Q 23.96875 65.921875 18.8125 64.3125 
Q 13.671875 62.703125 7.8125 59.421875 
L 7.8125 69.390625 
Q 13.765625 71.78125 18.9375 73 
Q 24.125 74.21875 28.421875 74.21875 
Q 39.75 74.21875 46.484375 68.546875 
Q 53.21875 62.890625 53.21875 53.421875 
Q 53.21875 48.921875 51.53125 44.890625 
Q 49.859375 40.875 45.40625 35.40625 
Q 44.1875 33.984375 37.640625 27.21875 
Q 31.109375 20.453125 19.1875 8.296875 
z
" id="DejaVuSans-50"/>
       </defs>
       <use xlink:href="#DejaVuSans-50"/>
      </g>
     </g>
    </g>
    <g id="xtick_3">
     <g id="line2d_3">
      <g>
       <use style="stroke:#000000;stroke-width:0.8;" x="130.565289" xlink:href="#mfc0ad68742" y="162.432"/>
      </g>
     </g>
     <g id="text_3">
      <!-- 4 -->
      <g transform="translate(127.384039 177.030437)scale(0.1 -0.1)">
       <defs>
        <path d="M 37.796875 64.3125 
L 12.890625 25.390625 
L 37.796875 25.390625 
z
M 35.203125 72.90625 
L 47.609375 72.90625 
L 47.609375 25.390625 
L 58.015625 25.390625 
L 58.015625 17.1875 
L 47.609375 17.1875 
L 47.609375 0 
L 37.796875 0 
L 37.796875 17.1875 
L 4.890625 17.1875 
L 4.890625 26.703125 
z
" id="DejaVuSans-52"/>
       </defs>
       <use xlink:href="#DejaVuSans-52"/>
      </g>
     </g>
    </g>
    <g id="xtick_4">
     <g id="line2d_4">
      <g>
       <use style="stroke:#000000;stroke-width:0.8;" x="163.358678" xlink:href="#mfc0ad68742" y="162.432"/>
      </g>
     </g>
     <g id="text_4">
      <!-- 6 -->
      <g transform="translate(160.177428 177.030437)scale(0.1 -0.1)">
       <defs>
        <path d="M 33.015625 40.375 
Q 26.375 40.375 22.484375 35.828125 
Q 18.609375 31.296875 18.609375 23.390625 
Q 18.609375 15.53125 22.484375 10.953125 
Q 26.375 6.390625 33.015625 6.390625 
Q 39.65625 6.390625 43.53125 10.953125 
Q 47.40625 15.53125 47.40625 23.390625 
Q 47.40625 31.296875 43.53125 35.828125 
Q 39.65625 40.375 33.015625 40.375 
z
M 52.59375 71.296875 
L 52.59375 62.3125 
Q 48.875 64.0625 45.09375 64.984375 
Q 41.3125 65.921875 37.59375 65.921875 
Q 27.828125 65.921875 22.671875 59.328125 
Q 17.53125 52.734375 16.796875 39.40625 
Q 19.671875 43.65625 24.015625 45.921875 
Q 28.375 48.1875 33.59375 48.1875 
Q 44.578125 48.1875 50.953125 41.515625 
Q 57.328125 34.859375 57.328125 23.390625 
Q 57.328125 12.15625 50.6875 5.359375 
Q 44.046875 -1.421875 33.015625 -1.421875 
Q 20.359375 -1.421875 13.671875 8.265625 
Q 6.984375 17.96875 6.984375 36.375 
Q 6.984375 53.65625 15.1875 63.9375 
Q 23.390625 74.21875 37.203125 74.21875 
Q 40.921875 74.21875 44.703125 73.484375 
Q 48.484375 72.75 52.59375 71.296875 
z
" id="DejaVuSans-54"/>
       </defs>
       <use xlink:href="#DejaVuSans-54"/>
      </g>
     </g>
    </g>
    <g id="xtick_5">
     <g id="line2d_5">
      <g>
       <use style="stroke:#000000;stroke-width:0.8;" x="196.152066" xlink:href="#mfc0ad68742" y="162.432"/>
      </g>
     </g>
     <g id="text_5">
      <!-- 8 -->
      <g transform="translate(192.970816 177.030437)scale(0.1 -0.1)">
       <defs>
        <path d="M 31.78125 34.625 
Q 24.75 34.625 20.71875 30.859375 
Q 16.703125 27.09375 16.703125 20.515625 
Q 16.703125 13.921875 20.71875 10.15625 
Q 24.75 6.390625 31.78125 6.390625 
Q 38.8125 6.390625 42.859375 10.171875 
Q 46.921875 13.96875 46.921875 20.515625 
Q 46.921875 27.09375 42.890625 30.859375 
Q 38.875 34.625 31.78125 34.625 
z
M 21.921875 38.8125 
Q 15.578125 40.375 12.03125 44.71875 
Q 8.5 49.078125 8.5 55.328125 
Q 8.5 64.0625 14.71875 69.140625 
Q 20.953125 74.21875 31.78125 74.21875 
Q 42.671875 74.21875 48.875 69.140625 
Q 55.078125 64.0625 55.078125 55.328125 
Q 55.078125 49.078125 51.53125 44.71875 
Q 48 40.375 41.703125 38.8125 
Q 48.828125 37.15625 52.796875 32.3125 
Q 56.78125 27.484375 56.78125 20.515625 
Q 56.78125 9.90625 50.3125 4.234375 
Q 43.84375 -1.421875 31.78125 -1.421875 
Q 19.734375 -1.421875 13.25 4.234375 
Q 6.78125 9.90625 6.78125 20.515625 
Q 6.78125 27.484375 10.78125 32.3125 
Q 14.796875 37.15625 21.921875 38.8125 
z
M 18.3125 54.390625 
Q 18.3125 48.734375 21.84375 45.5625 
Q 25.390625 42.390625 31.78125 42.390625 
Q 38.140625 42.390625 41.71875 45.5625 
Q 45.3125 48.734375 45.3125 54.390625 
Q 45.3125 60.0625 41.71875 63.234375 
Q 38.140625 66.40625 31.78125 66.40625 
Q 25.390625 66.40625 21.84375 63.234375 
Q 18.3125 60.0625 18.3125 54.390625 
z
" id="DejaVuSans-56"/>
       </defs>
       <use xlink:href="#DejaVuSans-56"/>
      </g>
     </g>
    </g>
   </g>
   <g id="matplotlib.axis_2">
    <g id="ytick_1">
     <g id="line2d_6">
      <defs>
       <path d="M 0 0 
L -3.5 0 
" id="m0ebe957f48" style="stroke:#000000;stroke-width:0.8;"/>
      </defs>
      <g>
       <use style="stroke:#000000;stroke-width:0.8;" x="57.6" xlink:href="#m0ebe957f48" y="156.933818"/>
      </g>
     </g>
     <g id="text_6">
      <!-- 0 -->
      <g transform="translate(44.2375 160.733037)scale(0.1 -0.1)">
       <use xlink:href="#DejaVuSans-48"/>
      </g>
     </g>
    </g>
    <g id="ytick_2">
     <g id="line2d_7">
      <g>
       <use style="stroke:#000000;stroke-width:0.8;" x="57.6" xlink:href="#m0ebe957f48" y="132.497455"/>
      </g>
     </g>
     <g id="text_7">
      <!-- 2 -->
      <g transform="translate(44.2375 136.296673)scale(0.1 -0.1)">
       <use xlink:href="#DejaVuSans-50"/>
      </g>
     </g>
    </g>
    <g id="ytick_3">
     <g id="line2d_8">
      <g>
       <use style="stroke:#000000;stroke-width:0.8;" x="57.6" xlink:href="#m0ebe957f48" y="108.061091"/>
      </g>
     </g>
     <g id="text_8">
      <!-- 4 -->
      <g transform="translate(44.2375 111.86031)scale(0.1 -0.1)">
       <use xlink:href="#DejaVuSans-52"/>
      </g>
     </g>
    </g>
    <g id="ytick_4">
     <g id="line2d_9">
      <g>
       <use style="stroke:#000000;stroke-width:0.8;" x="57.6" xlink:href="#m0ebe957f48" y="83.624727"/>
      </g>
     </g>
     <g id="text_9">
      <!-- 6 -->
      <g transform="translate(44.2375 87.423946)scale(0.1 -0.1)">
       <use xlink:href="#DejaVuSans-54"/>
      </g>
     </g>
    </g>
    <g id="ytick_5">
     <g id="line2d_10">
      <g>
       <use style="stroke:#000000;stroke-width:0.8;" x="57.6" xlink:href="#m0ebe957f48" y="59.188364"/>
      </g>
     </g>
     <g id="text_10">
      <!-- 8 -->
      <g transform="translate(44.2375 62.987582)scale(0.1 -0.1)">
       <use xlink:href="#DejaVuSans-56"/>
      </g>
     </g>
    </g>
   </g>
   <g id="patch_3">
    <path d="M 57.6 162.432 
L 57.6 41.472 
" style="fill:none;stroke:#000000;stroke-linecap:square;stroke-linejoin:miter;stroke-width:0.8;"/>
   </g>
   <g id="patch_4">
    <path d="M 219.927273 162.432 
L 219.927273 41.472 
" style="fill:none;stroke:#000000;stroke-linecap:square;stroke-linejoin:miter;stroke-width:0.8;"/>
   </g>
   <g id="patch_5">
    <path d="M 57.6 162.432 
L 219.927273 162.432 
" style="fill:none;stroke:#000000;stroke-linecap:square;stroke-linejoin:miter;stroke-width:0.8;"/>
   </g>
   <g id="patch_6">
    <path d="M 57.6 41.472 
L 219.927273 41.472 
" style="fill:none;stroke:#000000;stroke-linecap:square;stroke-linejoin:miter;stroke-width:0.8;"/>
   </g>
   <g id="legend_1">
    <g id="patch_7">
     <path d="M 64.6 54.472 
L 68.6 54.472 
Q 70.6 54.472 70.6 52.472 
L 70.6 48.472 
Q 70.6 46.472 68.6 46.472 
L 64.6 46.472 
Q 62.6 46.472 62.6 48.472 
L 62.6 52.472 
Q 62.6 54.472 64.6 54.472 
z
" style="fill:#ffffff;opacity:0.8;stroke:#cccccc;stroke-linejoin:miter;"/>
    </g>
   </g>
  </g>
  <g id="axes_2">
   <g id="patch_8">
    <path d="M 252.392727 162.432 
L 414.72 162.432 
L 414.72 41.472 
L 252.392727 41.472 
z
" style="fill:#ffffff;"/>
   </g>
   <g id="matplotlib.axis_3">
    <g id="xtick_6">
     <g id="line2d_11">
      <g>
       <use style="stroke:#000000;stroke-width:0.8;" x="259.77124" xlink:href="#mfc0ad68742" y="162.432"/>
      </g>
     </g>
     <g id="text_11">
      <!-- 0 -->
      <g transform="translate(256.58999 177.030437)scale(0.1 -0.1)">
       <use xlink:href="#DejaVuSans-48"/>
      </g>
     </g>
    </g>
    <g id="xtick_7">
     <g id="line2d_12">
      <g>
       <use style="stroke:#000000;stroke-width:0.8;" x="297.036454" xlink:href="#mfc0ad68742" y="162.432"/>
      </g>
     </g>
     <g id="text_12">
      <!-- 25 -->
      <g transform="translate(290.673954 177.030437)scale(0.1 -0.1)">
       <defs>
        <path d="M 10.796875 72.90625 
L 49.515625 72.90625 
L 49.515625 64.59375 
L 19.828125 64.59375 
L 19.828125 46.734375 
Q 21.96875 47.46875 24.109375 47.828125 
Q 26.265625 48.1875 28.421875 48.1875 
Q 40.625 48.1875 47.75 41.5 
Q 54.890625 34.8125 54.890625 23.390625 
Q 54.890625 11.625 47.5625 5.09375 
Q 40.234375 -1.421875 26.90625 -1.421875 
Q 22.3125 -1.421875 17.546875 -0.640625 
Q 12.796875 0.140625 7.71875 1.703125 
L 7.71875 11.625 
Q 12.109375 9.234375 16.796875 8.0625 
Q 21.484375 6.890625 26.703125 6.890625 
Q 35.15625 6.890625 40.078125 11.328125 
Q 45.015625 15.765625 45.015625 23.390625 
Q 45.015625 31 40.078125 35.4375 
Q 35.15625 39.890625 26.703125 39.890625 
Q 22.75 39.890625 18.8125 39.015625 
Q 14.890625 38.140625 10.796875 36.28125 
z
" id="DejaVuSans-53"/>
       </defs>
       <use xlink:href="#DejaVuSans-50"/>
       <use x="63.623047" xlink:href="#DejaVuSans-53"/>
      </g>
     </g>
    </g>
    <g id="xtick_8">
     <g id="line2d_13">
      <g>
       <use style="stroke:#000000;stroke-width:0.8;" x="334.301668" xlink:href="#mfc0ad68742" y="162.432"/>
      </g>
     </g>
     <g id="text_13">
      <!-- 50 -->
      <g transform="translate(327.939168 177.030437)scale(0.1 -0.1)">
       <use xlink:href="#DejaVuSans-53"/>
       <use x="63.623047" xlink:href="#DejaVuSans-48"/>
      </g>
     </g>
    </g>
    <g id="xtick_9">
     <g id="line2d_14">
      <g>
       <use style="stroke:#000000;stroke-width:0.8;" x="371.566882" xlink:href="#mfc0ad68742" y="162.432"/>
      </g>
     </g>
     <g id="text_14">
      <!-- 75 -->
      <g transform="translate(365.204382 177.030437)scale(0.1 -0.1)">
       <defs>
        <path d="M 8.203125 72.90625 
L 55.078125 72.90625 
L 55.078125 68.703125 
L 28.609375 0 
L 18.3125 0 
L 43.21875 64.59375 
L 8.203125 64.59375 
z
" id="DejaVuSans-55"/>
       </defs>
       <use xlink:href="#DejaVuSans-55"/>
       <use x="63.623047" xlink:href="#DejaVuSans-53"/>
      </g>
     </g>
    </g>
    <g id="xtick_10">
     <g id="line2d_15">
      <g>
       <use style="stroke:#000000;stroke-width:0.8;" x="408.832096" xlink:href="#mfc0ad68742" y="162.432"/>
      </g>
     </g>
     <g id="text_15">
      <!-- 100 -->
      <g transform="translate(399.288346 177.030437)scale(0.1 -0.1)">
       <defs>
        <path d="M 12.40625 8.296875 
L 28.515625 8.296875 
L 28.515625 63.921875 
L 10.984375 60.40625 
L 10.984375 69.390625 
L 28.421875 72.90625 
L 38.28125 72.90625 
L 38.28125 8.296875 
L 54.390625 8.296875 
L 54.390625 0 
L 12.40625 0 
z
" id="DejaVuSans-49"/>
       </defs>
       <use xlink:href="#DejaVuSans-49"/>
       <use x="63.623047" xlink:href="#DejaVuSans-48"/>
       <use x="127.246094" xlink:href="#DejaVuSans-48"/>
      </g>
     </g>
    </g>
   </g>
   <g id="matplotlib.axis_4">
    <g id="ytick_6">
     <g id="line2d_16">
      <g>
       <use style="stroke:#000000;stroke-width:0.8;" x="252.392727" xlink:href="#m0ebe957f48" y="156.938038"/>
      </g>
     </g>
     <g id="text_16">
      <!-- −1.0 -->
      <g transform="translate(221.109915 160.737257)scale(0.1 -0.1)">
       <defs>
        <path d="M 10.59375 35.5 
L 73.1875 35.5 
L 73.1875 27.203125 
L 10.59375 27.203125 
z
" id="DejaVuSans-8722"/>
        <path d="M 10.6875 12.40625 
L 21 12.40625 
L 21 0 
L 10.6875 0 
z
" id="DejaVuSans-46"/>
       </defs>
       <use xlink:href="#DejaVuSans-8722"/>
       <use x="83.789062" xlink:href="#DejaVuSans-49"/>
       <use x="147.412109" xlink:href="#DejaVuSans-46"/>
       <use x="179.199219" xlink:href="#DejaVuSans-48"/>
      </g>
     </g>
    </g>
    <g id="ytick_7">
     <g id="line2d_17">
      <g>
       <use style="stroke:#000000;stroke-width:0.8;" x="252.392727" xlink:href="#m0ebe957f48" y="129.443101"/>
      </g>
     </g>
     <g id="text_17">
      <!-- −0.5 -->
      <g transform="translate(221.109915 133.24232)scale(0.1 -0.1)">
       <use xlink:href="#DejaVuSans-8722"/>
       <use x="83.789062" xlink:href="#DejaVuSans-48"/>
       <use x="147.412109" xlink:href="#DejaVuSans-46"/>
       <use x="179.199219" xlink:href="#DejaVuSans-53"/>
      </g>
     </g>
    </g>
    <g id="ytick_8">
     <g id="line2d_18">
      <g>
       <use style="stroke:#000000;stroke-width:0.8;" x="252.392727" xlink:href="#m0ebe957f48" y="101.948165"/>
      </g>
     </g>
     <g id="text_18">
      <!-- 0.0 -->
      <g transform="translate(229.489602 105.747383)scale(0.1 -0.1)">
       <use xlink:href="#DejaVuSans-48"/>
       <use x="63.623047" xlink:href="#DejaVuSans-46"/>
       <use x="95.410156" xlink:href="#DejaVuSans-48"/>
      </g>
     </g>
    </g>
    <g id="ytick_9">
     <g id="line2d_19">
      <g>
       <use style="stroke:#000000;stroke-width:0.8;" x="252.392727" xlink:href="#m0ebe957f48" y="74.453228"/>
      </g>
     </g>
     <g id="text_19">
      <!-- 0.5 -->
      <g transform="translate(229.489602 78.252447)scale(0.1 -0.1)">
       <use xlink:href="#DejaVuSans-48"/>
       <use x="63.623047" xlink:href="#DejaVuSans-46"/>
       <use x="95.410156" xlink:href="#DejaVuSans-53"/>
      </g>
     </g>
    </g>
    <g id="ytick_10">
     <g id="line2d_20">
      <g>
       <use style="stroke:#000000;stroke-width:0.8;" x="252.392727" xlink:href="#m0ebe957f48" y="46.958291"/>
      </g>
     </g>
     <g id="text_20">
      <!-- 1.0 -->
      <g transform="translate(229.489602 50.75751)scale(0.1 -0.1)">
       <use xlink:href="#DejaVuSans-49"/>
       <use x="63.623047" xlink:href="#DejaVuSans-46"/>
       <use x="95.410156" xlink:href="#DejaVuSans-48"/>
      </g>
     </g>
    </g>
   </g>
   <g id="line2d_21">
    <path clip-path="url(#pf286880a76)" d="M 259.77124 101.948165 
L 261.261848 99.199816 
L 262.752457 96.458338 
L 264.243065 93.730581 
L 265.733674 91.023363 
L 267.224282 88.343452 
L 268.714891 85.697546 
L 270.2055 83.092258 
L 271.696108 80.534099 
L 273.186717 78.029465 
L 274.677325 75.584615 
L 276.167934 73.20566 
L 277.658542 70.898546 
L 279.149151 68.669041 
L 280.63976 66.522715 
L 282.130368 64.464935 
L 283.620977 62.500844 
L 285.111585 60.63535 
L 286.602194 58.873117 
L 288.092802 57.218549 
L 289.583411 55.675782 
L 291.07402 54.248671 
L 292.564628 52.940785 
L 294.055237 51.755391 
L 295.545845 50.695453 
L 297.036454 49.76362 
L 298.527062 48.962222 
L 300.017671 48.293261 
L 301.508279 47.758409 
L 302.998888 47.359003 
L 304.489497 47.096041 
L 305.980105 46.970182 
L 307.470714 46.981739 
L 308.961322 47.130683 
L 310.451931 47.416642 
L 311.942539 47.838902 
L 313.433148 48.396407 
L 314.923757 49.087763 
L 316.414365 49.911242 
L 317.904974 50.864787 
L 319.395582 51.946014 
L 320.886191 53.15222 
L 322.376799 54.480391 
L 323.867408 55.927206 
L 325.358017 57.48905 
L 326.848625 59.162018 
L 328.339234 60.941929 
L 329.829842 62.824335 
L 331.320451 64.80453 
L 332.811059 66.877564 
L 334.301668 69.038257 
L 335.792276 71.281208 
L 337.282885 73.600809 
L 338.773494 75.991265 
L 340.264102 78.446599 
L 341.754711 80.960675 
L 343.245319 83.527209 
L 344.735928 86.139785 
L 346.226536 88.791874 
L 347.717145 91.476847 
L 349.207754 94.187993 
L 350.698362 96.918536 
L 352.188971 99.661649 
L 353.679579 102.410478 
L 355.170188 105.158151 
L 356.660796 107.897801 
L 358.151405 110.62258 
L 359.642014 113.325678 
L 361.132622 116.000338 
L 362.623231 118.639874 
L 364.113839 121.23769 
L 365.604448 123.787292 
L 367.095056 126.282308 
L 368.585665 128.716501 
L 370.076273 131.083787 
L 371.566882 133.378249 
L 373.057491 135.594153 
L 374.548099 137.725959 
L 376.038708 139.768339 
L 377.529316 141.716188 
L 379.019925 143.564638 
L 380.510533 145.309069 
L 382.001142 146.94512 
L 383.491751 148.468701 
L 384.982359 149.876006 
L 386.472968 151.163516 
L 387.963576 152.328014 
L 389.454185 153.366588 
L 390.944793 154.276642 
L 392.435402 155.055903 
L 393.926011 155.702422 
L 395.416619 156.214584 
L 396.907228 156.591107 
L 398.397836 156.831052 
L 399.888445 156.933818 
L 401.379053 156.899149 
L 402.869662 156.727131 
L 404.36027 156.418193 
L 405.850879 155.97311 
L 407.341488 155.392992 
" style="fill:none;stroke:#1f77b4;stroke-linecap:square;stroke-width:1.5;"/>
   </g>
   <g id="patch_9">
    <path d="M 252.392727 162.432 
L 252.392727 41.472 
" style="fill:none;stroke:#000000;stroke-linecap:square;stroke-linejoin:miter;stroke-width:0.8;"/>
   </g>
   <g id="patch_10">
    <path d="M 414.72 162.432 
L 414.72 41.472 
" style="fill:none;stroke:#000000;stroke-linecap:square;stroke-linejoin:miter;stroke-width:0.8;"/>
   </g>
   <g id="patch_11">
    <path d="M 252.392727 162.432 
L 414.72 162.432 
" style="fill:none;stroke:#000000;stroke-linecap:square;stroke-linejoin:miter;stroke-width:0.8;"/>
   </g>
   <g id="patch_12">
    <path d="M 252.392727 41.472 
L 414.72 41.472 
" style="fill:none;stroke:#000000;stroke-linecap:square;stroke-linejoin:miter;stroke-width:0.8;"/>
   </g>
  </g>
  <g id="axes_3">
   <g id="patch_13">
    <path d="M 57.6 307.584 
L 219.927273 307.584 
L 219.927273 186.624 
L 57.6 186.624 
z
" style="fill:#ffffff;"/>
   </g>
   <g id="matplotlib.axis_5">
    <g id="xtick_11">
     <g id="line2d_22">
      <g>
       <use style="stroke:#000000;stroke-width:0.8;" x="64.978512" xlink:href="#mfc0ad68742" y="307.584"/>
      </g>
     </g>
     <g id="text_21">
      <!-- 0 -->
      <g transform="translate(61.797262 322.182437)scale(0.1 -0.1)">
       <use xlink:href="#DejaVuSans-48"/>
      </g>
     </g>
    </g>
    <g id="xtick_12">
     <g id="line2d_23">
      <g>
       <use style="stroke:#000000;stroke-width:0.8;" x="102.243727" xlink:href="#mfc0ad68742" y="307.584"/>
      </g>
     </g>
     <g id="text_22">
      <!-- 25 -->
      <g transform="translate(95.881227 322.182437)scale(0.1 -0.1)">
       <use xlink:href="#DejaVuSans-50"/>
       <use x="63.623047" xlink:href="#DejaVuSans-53"/>
      </g>
     </g>
    </g>
    <g id="xtick_13">
     <g id="line2d_24">
      <g>
       <use style="stroke:#000000;stroke-width:0.8;" x="139.508941" xlink:href="#mfc0ad68742" y="307.584"/>
      </g>
     </g>
     <g id="text_23">
      <!-- 50 -->
      <g transform="translate(133.146441 322.182437)scale(0.1 -0.1)">
       <use xlink:href="#DejaVuSans-53"/>
       <use x="63.623047" xlink:href="#DejaVuSans-48"/>
      </g>
     </g>
    </g>
    <g id="xtick_14">
     <g id="line2d_25">
      <g>
       <use style="stroke:#000000;stroke-width:0.8;" x="176.774155" xlink:href="#mfc0ad68742" y="307.584"/>
      </g>
     </g>
     <g id="text_24">
      <!-- 75 -->
      <g transform="translate(170.411655 322.182437)scale(0.1 -0.1)">
       <use xlink:href="#DejaVuSans-55"/>
       <use x="63.623047" xlink:href="#DejaVuSans-53"/>
      </g>
     </g>
    </g>
    <g id="xtick_15">
     <g id="line2d_26">
      <g>
       <use style="stroke:#000000;stroke-width:0.8;" x="214.039369" xlink:href="#mfc0ad68742" y="307.584"/>
      </g>
     </g>
     <g id="text_25">
      <!-- 100 -->
      <g transform="translate(204.495619 322.182437)scale(0.1 -0.1)">
       <use xlink:href="#DejaVuSans-49"/>
       <use x="63.623047" xlink:href="#DejaVuSans-48"/>
       <use x="127.246094" xlink:href="#DejaVuSans-48"/>
      </g>
     </g>
    </g>
   </g>
   <g id="matplotlib.axis_6">
    <g id="ytick_11">
     <g id="line2d_27">
      <g>
       <use style="stroke:#000000;stroke-width:0.8;" x="57.6" xlink:href="#m0ebe957f48" y="302.087694"/>
      </g>
     </g>
     <g id="text_26">
      <!-- −1.0 -->
      <g transform="translate(26.317187 305.886912)scale(0.1 -0.1)">
       <use xlink:href="#DejaVuSans-8722"/>
       <use x="83.789062" xlink:href="#DejaVuSans-49"/>
       <use x="147.412109" xlink:href="#DejaVuSans-46"/>
       <use x="179.199219" xlink:href="#DejaVuSans-48"/>
      </g>
     </g>
    </g>
    <g id="ytick_12">
     <g id="line2d_28">
      <g>
       <use style="stroke:#000000;stroke-width:0.8;" x="57.6" xlink:href="#m0ebe957f48" y="274.596316"/>
      </g>
     </g>
     <g id="text_27">
      <!-- −0.5 -->
      <g transform="translate(26.317187 278.395534)scale(0.1 -0.1)">
       <use xlink:href="#DejaVuSans-8722"/>
       <use x="83.789062" xlink:href="#DejaVuSans-48"/>
       <use x="147.412109" xlink:href="#DejaVuSans-46"/>
       <use x="179.199219" xlink:href="#DejaVuSans-53"/>
      </g>
     </g>
    </g>
    <g id="ytick_13">
     <g id="line2d_29">
      <g>
       <use style="stroke:#000000;stroke-width:0.8;" x="57.6" xlink:href="#m0ebe957f48" y="247.104938"/>
      </g>
     </g>
     <g id="text_28">
      <!-- 0.0 -->
      <g transform="translate(34.696875 250.904156)scale(0.1 -0.1)">
       <use xlink:href="#DejaVuSans-48"/>
       <use x="63.623047" xlink:href="#DejaVuSans-46"/>
       <use x="95.410156" xlink:href="#DejaVuSans-48"/>
      </g>
     </g>
    </g>
    <g id="ytick_14">
     <g id="line2d_30">
      <g>
       <use style="stroke:#000000;stroke-width:0.8;" x="57.6" xlink:href="#m0ebe957f48" y="219.61356"/>
      </g>
     </g>
     <g id="text_29">
      <!-- 0.5 -->
      <g transform="translate(34.696875 223.412778)scale(0.1 -0.1)">
       <use xlink:href="#DejaVuSans-48"/>
       <use x="63.623047" xlink:href="#DejaVuSans-46"/>
       <use x="95.410156" xlink:href="#DejaVuSans-53"/>
      </g>
     </g>
    </g>
    <g id="ytick_15">
     <g id="line2d_31">
      <g>
       <use style="stroke:#000000;stroke-width:0.8;" x="57.6" xlink:href="#m0ebe957f48" y="192.122182"/>
      </g>
     </g>
     <g id="text_30">
      <!-- 1.0 -->
      <g transform="translate(34.696875 195.921401)scale(0.1 -0.1)">
       <use xlink:href="#DejaVuSans-49"/>
       <use x="63.623047" xlink:href="#DejaVuSans-46"/>
       <use x="95.410156" xlink:href="#DejaVuSans-48"/>
      </g>
     </g>
    </g>
   </g>
   <g id="line2d_32">
    <path clip-path="url(#pdb2b691403)" d="M 64.978512 192.122182 
L 66.469121 192.24432 
L 67.95973 192.610194 
L 69.450338 193.218176 
L 70.940947 194.065567 
L 72.431555 195.148601 
L 73.922164 196.462466 
L 75.412772 198.001326 
L 76.903381 199.758343 
L 78.393989 201.725711 
L 79.884598 203.89469 
L 81.375207 206.255644 
L 82.865815 208.798083 
L 84.356424 211.510711 
L 85.847032 214.381478 
L 87.337641 217.397628 
L 88.828249 220.545762 
L 90.318858 223.811893 
L 91.809467 227.18151 
L 93.300075 230.639643 
L 94.790684 234.170928 
L 96.281292 237.759676 
L 97.771901 241.389943 
L 99.262509 245.045601 
L 100.753118 248.710408 
L 102.243727 252.368082 
L 103.734335 256.002373 
L 105.224944 259.597135 
L 106.715552 263.136396 
L 108.206161 266.604433 
L 109.696769 269.985838 
L 111.187378 273.265587 
L 112.677986 276.42911 
L 114.168595 279.462351 
L 115.659204 282.351835 
L 117.149812 285.084724 
L 118.640421 287.648876 
L 120.131029 290.0329 
L 121.621638 292.226204 
L 123.112246 294.219043 
L 124.602855 296.002563 
L 126.093464 297.568841 
L 127.584072 298.910919 
L 129.074681 300.022832 
L 130.565289 300.899642 
L 132.055898 301.537453 
L 133.546506 301.933432 
L 135.037115 302.085818 
L 136.527724 301.993936 
L 138.018332 301.658192 
L 139.508941 301.08008 
L 140.999549 300.262167 
L 142.490158 299.208087 
L 143.980766 297.922523 
L 145.471375 296.411187 
L 146.961983 294.680793 
L 148.452592 292.739029 
L 149.943201 290.594522 
L 151.433809 288.2568 
L 152.924418 285.736248 
L 154.415026 283.044065 
L 155.905635 280.192212 
L 157.396243 277.193359 
L 158.886852 274.060829 
L 160.377461 270.808539 
L 161.868069 267.450939 
L 163.358678 264.002946 
L 164.849286 260.479878 
L 166.339895 256.897388 
L 167.830503 253.271393 
L 169.321112 249.618001 
L 170.811721 245.953444 
L 172.302329 242.294002 
L 173.792938 238.655935 
L 175.283546 235.055405 
L 176.774155 231.508409 
L 178.264763 228.030705 
L 179.755372 224.637744 
L 181.24598 221.3446 
L 182.736589 218.165904 
L 184.227198 215.115778 
L 185.717806 212.207774 
L 187.208415 209.454811 
L 188.699023 206.86912 
L 190.189632 204.462188 
L 191.68024 202.24471 
L 193.170849 200.226536 
L 194.661458 198.416634 
L 196.152066 196.823044 
L 197.642675 195.452847 
L 199.133283 194.312129 
L 200.623892 193.405959 
L 202.1145 192.738363 
L 203.605109 192.312307 
L 205.095718 192.129683 
L 206.586326 192.191303 
L 208.076935 192.496894 
L 209.567543 193.045097 
L 211.058152 193.833477 
L 212.54876 194.858531 
" style="fill:none;stroke:#1f77b4;stroke-linecap:square;stroke-width:1.5;"/>
   </g>
   <g id="patch_14">
    <path d="M 57.6 307.584 
L 57.6 186.624 
" style="fill:none;stroke:#000000;stroke-linecap:square;stroke-linejoin:miter;stroke-width:0.8;"/>
   </g>
   <g id="patch_15">
    <path d="M 219.927273 307.584 
L 219.927273 186.624 
" style="fill:none;stroke:#000000;stroke-linecap:square;stroke-linejoin:miter;stroke-width:0.8;"/>
   </g>
   <g id="patch_16">
    <path d="M 57.6 307.584 
L 219.927273 307.584 
" style="fill:none;stroke:#000000;stroke-linecap:square;stroke-linejoin:miter;stroke-width:0.8;"/>
   </g>
   <g id="patch_17">
    <path d="M 57.6 186.624 
L 219.927273 186.624 
" style="fill:none;stroke:#000000;stroke-linecap:square;stroke-linejoin:miter;stroke-width:0.8;"/>
   </g>
  </g>
  <g id="axes_4">
   <g id="patch_18">
    <path d="M 252.392727 307.584 
L 414.72 307.584 
L 414.72 186.624 
L 252.392727 186.624 
z
" style="fill:#ffffff;"/>
   </g>
   <g id="matplotlib.axis_7">
    <g id="xtick_16">
     <g id="line2d_33">
      <g>
       <use style="stroke:#000000;stroke-width:0.8;" x="259.77124" xlink:href="#mfc0ad68742" y="307.584"/>
      </g>
     </g>
     <g id="text_31">
      <!-- 0 -->
      <g transform="translate(256.58999 322.182437)scale(0.1 -0.1)">
       <use xlink:href="#DejaVuSans-48"/>
      </g>
     </g>
    </g>
    <g id="xtick_17">
     <g id="line2d_34">
      <g>
       <use style="stroke:#000000;stroke-width:0.8;" x="297.036454" xlink:href="#mfc0ad68742" y="307.584"/>
      </g>
     </g>
     <g id="text_32">
      <!-- 25 -->
      <g transform="translate(290.673954 322.182437)scale(0.1 -0.1)">
       <use xlink:href="#DejaVuSans-50"/>
       <use x="63.623047" xlink:href="#DejaVuSans-53"/>
      </g>
     </g>
    </g>
    <g id="xtick_18">
     <g id="line2d_35">
      <g>
       <use style="stroke:#000000;stroke-width:0.8;" x="334.301668" xlink:href="#mfc0ad68742" y="307.584"/>
      </g>
     </g>
     <g id="text_33">
      <!-- 50 -->
      <g transform="translate(327.939168 322.182437)scale(0.1 -0.1)">
       <use xlink:href="#DejaVuSans-53"/>
       <use x="63.623047" xlink:href="#DejaVuSans-48"/>
      </g>
     </g>
    </g>
    <g id="xtick_19">
     <g id="line2d_36">
      <g>
       <use style="stroke:#000000;stroke-width:0.8;" x="371.566882" xlink:href="#mfc0ad68742" y="307.584"/>
      </g>
     </g>
     <g id="text_34">
      <!-- 75 -->
      <g transform="translate(365.204382 322.182437)scale(0.1 -0.1)">
       <use xlink:href="#DejaVuSans-55"/>
       <use x="63.623047" xlink:href="#DejaVuSans-53"/>
      </g>
     </g>
    </g>
    <g id="xtick_20">
     <g id="line2d_37">
      <g>
       <use style="stroke:#000000;stroke-width:0.8;" x="408.832096" xlink:href="#mfc0ad68742" y="307.584"/>
      </g>
     </g>
     <g id="text_35">
      <!-- 100 -->
      <g transform="translate(399.288346 322.182437)scale(0.1 -0.1)">
       <use xlink:href="#DejaVuSans-49"/>
       <use x="63.623047" xlink:href="#DejaVuSans-48"/>
       <use x="127.246094" xlink:href="#DejaVuSans-48"/>
      </g>
     </g>
    </g>
   </g>
   <g id="matplotlib.axis_8">
    <g id="ytick_16">
     <g id="line2d_38">
      <g>
       <use style="stroke:#000000;stroke-width:0.8;" x="252.392727" xlink:href="#m0ebe957f48" y="302.087694"/>
      </g>
     </g>
     <g id="text_36">
      <!-- −1.0 -->
      <g transform="translate(221.109915 305.886912)scale(0.1 -0.1)">
       <use xlink:href="#DejaVuSans-8722"/>
       <use x="83.789062" xlink:href="#DejaVuSans-49"/>
       <use x="147.412109" xlink:href="#DejaVuSans-46"/>
       <use x="179.199219" xlink:href="#DejaVuSans-48"/>
      </g>
     </g>
    </g>
    <g id="ytick_17">
     <g id="line2d_39">
      <g>
       <use style="stroke:#000000;stroke-width:0.8;" x="252.392727" xlink:href="#m0ebe957f48" y="274.596316"/>
      </g>
     </g>
     <g id="text_37">
      <!-- −0.5 -->
      <g transform="translate(221.109915 278.395534)scale(0.1 -0.1)">
       <use xlink:href="#DejaVuSans-8722"/>
       <use x="83.789062" xlink:href="#DejaVuSans-48"/>
       <use x="147.412109" xlink:href="#DejaVuSans-46"/>
       <use x="179.199219" xlink:href="#DejaVuSans-53"/>
      </g>
     </g>
    </g>
    <g id="ytick_18">
     <g id="line2d_40">
      <g>
       <use style="stroke:#000000;stroke-width:0.8;" x="252.392727" xlink:href="#m0ebe957f48" y="247.104938"/>
      </g>
     </g>
     <g id="text_38">
      <!-- 0.0 -->
      <g transform="translate(229.489602 250.904156)scale(0.1 -0.1)">
       <use xlink:href="#DejaVuSans-48"/>
       <use x="63.623047" xlink:href="#DejaVuSans-46"/>
       <use x="95.410156" xlink:href="#DejaVuSans-48"/>
      </g>
     </g>
    </g>
    <g id="ytick_19">
     <g id="line2d_41">
      <g>
       <use style="stroke:#000000;stroke-width:0.8;" x="252.392727" xlink:href="#m0ebe957f48" y="219.61356"/>
      </g>
     </g>
     <g id="text_39">
      <!-- 0.5 -->
      <g transform="translate(229.489602 223.412778)scale(0.1 -0.1)">
       <use xlink:href="#DejaVuSans-48"/>
       <use x="63.623047" xlink:href="#DejaVuSans-46"/>
       <use x="95.410156" xlink:href="#DejaVuSans-53"/>
      </g>
     </g>
    </g>
    <g id="ytick_20">
     <g id="line2d_42">
      <g>
       <use style="stroke:#000000;stroke-width:0.8;" x="252.392727" xlink:href="#m0ebe957f48" y="192.122182"/>
      </g>
     </g>
     <g id="text_40">
      <!-- 1.0 -->
      <g transform="translate(229.489602 195.921401)scale(0.1 -0.1)">
       <use xlink:href="#DejaVuSans-49"/>
       <use x="63.623047" xlink:href="#DejaVuSans-46"/>
       <use x="95.410156" xlink:href="#DejaVuSans-48"/>
      </g>
     </g>
    </g>
   </g>
   <g id="line2d_43">
    <path clip-path="url(#p22576a618b)" d="M 259.77124 247.104938 
L 261.261848 244.356945 
L 262.752457 241.615821 
L 264.243065 238.888417 
L 265.733674 236.18155 
L 267.224282 233.501986 
L 268.714891 230.856422 
L 270.2055 228.251471 
L 271.696108 225.693644 
L 273.186717 223.189334 
L 274.677325 220.7448 
L 276.167934 218.366153 
L 277.658542 216.059338 
L 279.149151 213.830121 
L 280.63976 211.684074 
L 282.130368 209.62656 
L 283.620977 207.662723 
L 285.111585 205.797471 
L 286.602194 204.035465 
L 288.092802 202.381112 
L 289.583411 200.838544 
L 291.07402 199.411618 
L 292.564628 198.103901 
L 294.055237 196.918661 
L 295.545845 195.85886 
L 297.036454 194.927148 
L 298.527062 194.125853 
L 300.017671 193.456979 
L 301.508279 192.922196 
L 302.998888 192.522842 
L 304.489497 192.259914 
L 305.980105 192.134071 
L 307.470714 192.145626 
L 308.961322 192.294551 
L 310.451931 192.580474 
L 311.942539 193.002679 
L 313.433148 193.560111 
L 314.923757 194.251378 
L 316.414365 195.074751 
L 317.904974 196.028172 
L 319.395582 197.109259 
L 320.886191 198.315309 
L 322.376799 199.643308 
L 323.867408 201.089936 
L 325.358017 202.651577 
L 326.848625 204.324329 
L 328.339234 206.10401 
L 329.829842 207.986172 
L 331.320451 209.966111 
L 332.811059 212.038877 
L 334.301668 214.19929 
L 335.792276 216.44195 
L 337.282885 218.761252 
L 338.773494 221.151398 
L 340.264102 223.606414 
L 341.754711 226.120165 
L 343.245319 228.686366 
L 344.735928 231.298604 
L 346.226536 233.95035 
L 347.717145 236.634976 
L 349.207754 239.345771 
L 350.698362 242.07596 
L 352.188971 244.818718 
L 353.679579 247.567191 
L 355.170188 250.314509 
L 356.660796 253.053804 
L 358.151405 255.778231 
L 359.642014 258.480978 
L 361.132622 261.155292 
L 362.623231 263.794487 
L 364.113839 266.391966 
L 365.604448 268.941238 
L 367.095056 271.435931 
L 368.585665 273.869809 
L 370.076273 276.236789 
L 371.566882 278.530954 
L 373.057491 280.746571 
L 374.548099 282.878101 
L 376.038708 284.920216 
L 377.529316 286.867814 
L 379.019925 288.716025 
L 380.510533 290.460229 
L 382.001142 292.096068 
L 383.491751 293.619453 
L 384.982359 295.026576 
L 386.472968 296.313919 
L 387.963576 297.478266 
L 389.454185 298.516705 
L 390.944793 299.426642 
L 392.435402 300.205802 
L 393.926011 300.852237 
L 395.416619 301.364333 
L 396.907228 301.740808 
L 398.397836 301.980721 
L 399.888445 302.083474 
L 401.379053 302.048809 
L 402.869662 301.876813 
L 404.36027 301.567916 
L 405.850879 301.12289 
L 407.341488 300.542847 
" style="fill:none;stroke:#1f77b4;stroke-linecap:square;stroke-width:1.5;"/>
   </g>
   <g id="line2d_44">
    <path clip-path="url(#p22576a618b)" d="M 259.77124 192.122182 
L 261.261848 192.24432 
L 262.752457 192.610194 
L 264.243065 193.218176 
L 265.733674 194.065567 
L 267.224282 195.148601 
L 268.714891 196.462466 
L 270.2055 198.001326 
L 271.696108 199.758343 
L 273.186717 201.725711 
L 274.677325 203.89469 
L 276.167934 206.255644 
L 277.658542 208.798083 
L 279.149151 211.510711 
L 280.63976 214.381478 
L 282.130368 217.397628 
L 283.620977 220.545762 
L 285.111585 223.811893 
L 286.602194 227.18151 
L 288.092802 230.639643 
L 289.583411 234.170928 
L 291.07402 237.759676 
L 292.564628 241.389943 
L 294.055237 245.045601 
L 295.545845 248.710408 
L 297.036454 252.368082 
L 298.527062 256.002373 
L 300.017671 259.597135 
L 301.508279 263.136396 
L 302.998888 266.604433 
L 304.489497 269.985838 
L 305.980105 273.265587 
L 307.470714 276.42911 
L 308.961322 279.462351 
L 310.451931 282.351835 
L 311.942539 285.084724 
L 313.433148 287.648876 
L 314.923757 290.0329 
L 316.414365 292.226204 
L 317.904974 294.219043 
L 319.395582 296.002563 
L 320.886191 297.568841 
L 322.376799 298.910919 
L 323.867408 300.022832 
L 325.358017 300.899642 
L 326.848625 301.537453 
L 328.339234 301.933432 
L 329.829842 302.085818 
L 331.320451 301.993936 
L 332.811059 301.658192 
L 334.301668 301.08008 
L 335.792276 300.262167 
L 337.282885 299.208087 
L 338.773494 297.922523 
L 340.264102 296.411187 
L 341.754711 294.680793 
L 343.245319 292.739029 
L 344.735928 290.594522 
L 346.226536 288.2568 
L 347.717145 285.736248 
L 349.207754 283.044065 
L 350.698362 280.192212 
L 352.188971 277.193359 
L 353.679579 274.060829 
L 355.170188 270.808539 
L 356.660796 267.450939 
L 358.151405 264.002946 
L 359.642014 260.479878 
L 361.132622 256.897388 
L 362.623231 253.271393 
L 364.113839 249.618001 
L 365.604448 245.953444 
L 367.095056 242.294002 
L 368.585665 238.655935 
L 370.076273 235.055405 
L 371.566882 231.508409 
L 373.057491 228.030705 
L 374.548099 224.637744 
L 376.038708 221.3446 
L 377.529316 218.165904 
L 379.019925 215.115778 
L 380.510533 212.207774 
L 382.001142 209.454811 
L 383.491751 206.86912 
L 384.982359 204.462188 
L 386.472968 202.24471 
L 387.963576 200.226536 
L 389.454185 198.416634 
L 390.944793 196.823044 
L 392.435402 195.452847 
L 393.926011 194.312129 
L 395.416619 193.405959 
L 396.907228 192.738363 
L 398.397836 192.312307 
L 399.888445 192.129683 
L 401.379053 192.191303 
L 402.869662 192.496894 
L 404.36027 193.045097 
L 405.850879 193.833477 
L 407.341488 194.858531 
" style="fill:none;stroke:#ff7f0e;stroke-linecap:square;stroke-width:1.5;"/>
   </g>
   <g id="patch_19">
    <path d="M 252.392727 307.584 
L 252.392727 186.624 
" style="fill:none;stroke:#000000;stroke-linecap:square;stroke-linejoin:miter;stroke-width:0.8;"/>
   </g>
   <g id="patch_20">
    <path d="M 414.72 307.584 
L 414.72 186.624 
" style="fill:none;stroke:#000000;stroke-linecap:square;stroke-linejoin:miter;stroke-width:0.8;"/>
   </g>
   <g id="patch_21">
    <path d="M 252.392727 307.584 
L 414.72 307.584 
" style="fill:none;stroke:#000000;stroke-linecap:square;stroke-linejoin:miter;stroke-width:0.8;"/>
   </g>
   <g id="patch_22">
    <path d="M 252.392727 186.624 
L 414.72 186.624 
" style="fill:none;stroke:#000000;stroke-linecap:square;stroke-linejoin:miter;stroke-width:0.8;"/>
   </g>
  </g>
 </g>
 <defs>
  <clipPath id="p3bfa185fcf">
   <rect height="120.96" width="162.327273" x="57.6" y="41.472"/>
  </clipPath>
  <clipPath id="pf286880a76">
   <rect height="120.96" width="162.327273" x="252.392727" y="41.472"/>
  </clipPath>
  <clipPath id="pdb2b691403">
   <rect height="120.96" width="162.327273" x="57.6" y="186.624"/>
  </clipPath>
  <clipPath id="p22576a618b">
   <rect height="120.96" width="162.327273" x="252.392727" y="186.624"/>
  </clipPath>
 </defs>
</svg>
