<?xml version="1.0" encoding="utf-8" standalone="no"?>
<!DOCTYPE svg PUBLIC "-//W3C//DTD SVG 1.1//EN"
  "http://www.w3.org/Graphics/SVG/1.1/DTD/svg11.dtd">
<svg xmlns:xlink="http://www.w3.org/1999/xlink" width="460.8pt" height="345.6pt" viewBox="0 0 460.8 345.6" xmlns="http://www.w3.org/2000/svg" version="1.1">
 <metadata>
  <rdf:RDF xmlns:dc="http://purl.org/dc/elements/1.1/" xmlns:cc="http://creativecommons.org/ns#" xmlns:rdf="http://www.w3.org/1999/02/22-rdf-syntax-ns#">
   <cc:Work>
    <dc:type rdf:resource="http://purl.org/dc/dcmitype/StillImage"/>
    <dc:date>2024-05-29T15:23:57.573872</dc:date>
    <dc:format>image/svg+xml</dc:format>
    <dc:creator>
     <cc:Agent>
      <dc:title>Matplotlib v3.8.0, https://matplotlib.org/</dc:title>
     </cc:Agent>
    </dc:creator>
   </cc:Work>
  </rdf:RDF>
 </metadata>
 <defs>
  <style type="text/css">*{stroke-linejoin: round; stroke-linecap: butt}</style>
 </defs>
 <g id="figure_1">
  <g id="patch_1">
   <path d="M 0 345.6 
L 460.8 345.6 
L 460.8 0 
L 0 0 
z
" style="fill: #ffffff"/>
  </g>
  <g id="axes_1">
   <g id="patch_2">
    <path d="M 57.6 162.432 
L 414.72 162.432 
L 414.72 41.472 
L 57.6 41.472 
z
" style="fill: #ffffff"/>
   </g>
   <g id="patch_3">
    <path d="M 73.832727 162.432 
L 100.335139 162.432 
L 100.335139 162.432 
L 73.832727 162.432 
z
" clip-path="url(#p2f9eea9a9e)" style="fill: #1f77b4"/>
   </g>
   <g id="patch_4">
    <path d="M 106.960742 162.432 
L 133.463154 162.432 
L 133.463154 149.632 
L 106.960742 149.632 
z
" clip-path="url(#p2f9eea9a9e)" style="fill: #1f77b4"/>
   </g>
   <g id="patch_5">
    <path d="M 140.088757 162.432 
L 166.591169 162.432 
L 166.591169 136.832 
L 140.088757 136.832 
z
" clip-path="url(#p2f9eea9a9e)" style="fill: #1f77b4"/>
   </g>
   <g id="patch_6">
    <path d="M 173.216772 162.432 
L 199.719184 162.432 
L 199.719184 124.032 
L 173.216772 124.032 
z
" clip-path="url(#p2f9eea9a9e)" style="fill: #1f77b4"/>
   </g>
   <g id="patch_7">
    <path d="M 206.344787 162.432 
L 232.847199 162.432 
L 232.847199 111.232 
L 206.344787 111.232 
z
" clip-path="url(#p2f9eea9a9e)" style="fill: #1f77b4"/>
   </g>
   <g id="patch_8">
    <path d="M 239.472801 162.432 
L 265.975213 162.432 
L 265.975213 98.432 
L 239.472801 98.432 
z
" clip-path="url(#p2f9eea9a9e)" style="fill: #1f77b4"/>
   </g>
   <g id="patch_9">
    <path d="M 272.600816 162.432 
L 299.103228 162.432 
L 299.103228 85.632 
L 272.600816 85.632 
z
" clip-path="url(#p2f9eea9a9e)" style="fill: #1f77b4"/>
   </g>
   <g id="patch_10">
    <path d="M 305.728831 162.432 
L 332.231243 162.432 
L 332.231243 72.832 
L 305.728831 72.832 
z
" clip-path="url(#p2f9eea9a9e)" style="fill: #1f77b4"/>
   </g>
   <g id="patch_11">
    <path d="M 338.856846 162.432 
L 365.359258 162.432 
L 365.359258 60.032 
L 338.856846 60.032 
z
" clip-path="url(#p2f9eea9a9e)" style="fill: #1f77b4"/>
   </g>
   <g id="patch_12">
    <path d="M 371.984861 162.432 
L 398.487273 162.432 
L 398.487273 47.232 
L 371.984861 47.232 
z
" clip-path="url(#p2f9eea9a9e)" style="fill: #1f77b4"/>
   </g>
   <g id="matplotlib.axis_1">
    <g id="xtick_1">
     <g id="line2d_1">
      <defs>
       <path id="m6357d434c2" d="M 0 0 
L 0 3.5 
" style="stroke: #000000; stroke-width: 0.8"/>
      </defs>
      <g>
       <use xlink:href="#m6357d434c2" x="87.083933" y="162.432" style="stroke: #000000; stroke-width: 0.8"/>
      </g>
     </g>
     <g id="text_1">
      <!-- 0 -->
      <g transform="translate(83.902683 177.030437) scale(0.1 -0.1)">
       <defs>
        <path id="DejaVuSans-30" d="M 2034 4250 
Q 1547 4250 1301 3770 
Q 1056 3291 1056 2328 
Q 1056 1369 1301 889 
Q 1547 409 2034 409 
Q 2525 409 2770 889 
Q 3016 1369 3016 2328 
Q 3016 3291 2770 3770 
Q 2525 4250 2034 4250 
z
M 2034 4750 
Q 2819 4750 3233 4129 
Q 3647 3509 3647 2328 
Q 3647 1150 3233 529 
Q 2819 -91 2034 -91 
Q 1250 -91 836 529 
Q 422 1150 422 2328 
Q 422 3509 836 4129 
Q 1250 4750 2034 4750 
z
" transform="scale(0.015625)"/>
       </defs>
       <use xlink:href="#DejaVuSans-30"/>
      </g>
     </g>
    </g>
    <g id="xtick_2">
     <g id="line2d_2">
      <g>
       <use xlink:href="#m6357d434c2" x="153.339963" y="162.432" style="stroke: #000000; stroke-width: 0.8"/>
      </g>
     </g>
     <g id="text_2">
      <!-- 2 -->
      <g transform="translate(150.158713 177.030437) scale(0.1 -0.1)">
       <defs>
        <path id="DejaVuSans-32" d="M 1228 531 
L 3431 531 
L 3431 0 
L 469 0 
L 469 531 
Q 828 903 1448 1529 
Q 2069 2156 2228 2338 
Q 2531 2678 2651 2914 
Q 2772 3150 2772 3378 
Q 2772 3750 2511 3984 
Q 2250 4219 1831 4219 
Q 1534 4219 1204 4116 
Q 875 4013 500 3803 
L 500 4441 
Q 881 4594 1212 4672 
Q 1544 4750 1819 4750 
Q 2544 4750 2975 4387 
Q 3406 4025 3406 3419 
Q 3406 3131 3298 2873 
Q 3191 2616 2906 2266 
Q 2828 2175 2409 1742 
Q 1991 1309 1228 531 
z
" transform="scale(0.015625)"/>
       </defs>
       <use xlink:href="#DejaVuSans-32"/>
      </g>
     </g>
    </g>
    <g id="xtick_3">
     <g id="line2d_3">
      <g>
       <use xlink:href="#m6357d434c2" x="219.595993" y="162.432" style="stroke: #000000; stroke-width: 0.8"/>
      </g>
     </g>
     <g id="text_3">
      <!-- 4 -->
      <g transform="translate(216.414743 177.030437) scale(0.1 -0.1)">
       <defs>
        <path id="DejaVuSans-34" d="M 2419 4116 
L 825 1625 
L 2419 1625 
L 2419 4116 
z
M 2253 4666 
L 3047 4666 
L 3047 1625 
L 3713 1625 
L 3713 1100 
L 3047 1100 
L 3047 0 
L 2419 0 
L 2419 1100 
L 313 1100 
L 313 1709 
L 2253 4666 
z
" transform="scale(0.015625)"/>
       </defs>
       <use xlink:href="#DejaVuSans-34"/>
      </g>
     </g>
    </g>
    <g id="xtick_4">
     <g id="line2d_4">
      <g>
       <use xlink:href="#m6357d434c2" x="285.852022" y="162.432" style="stroke: #000000; stroke-width: 0.8"/>
      </g>
     </g>
     <g id="text_4">
      <!-- 6 -->
      <g transform="translate(282.670772 177.030437) scale(0.1 -0.1)">
       <defs>
        <path id="DejaVuSans-36" d="M 2113 2584 
Q 1688 2584 1439 2293 
Q 1191 2003 1191 1497 
Q 1191 994 1439 701 
Q 1688 409 2113 409 
Q 2538 409 2786 701 
Q 3034 994 3034 1497 
Q 3034 2003 2786 2293 
Q 2538 2584 2113 2584 
z
M 3366 4563 
L 3366 3988 
Q 3128 4100 2886 4159 
Q 2644 4219 2406 4219 
Q 1781 4219 1451 3797 
Q 1122 3375 1075 2522 
Q 1259 2794 1537 2939 
Q 1816 3084 2150 3084 
Q 2853 3084 3261 2657 
Q 3669 2231 3669 1497 
Q 3669 778 3244 343 
Q 2819 -91 2113 -91 
Q 1303 -91 875 529 
Q 447 1150 447 2328 
Q 447 3434 972 4092 
Q 1497 4750 2381 4750 
Q 2619 4750 2861 4703 
Q 3103 4656 3366 4563 
z
" transform="scale(0.015625)"/>
       </defs>
       <use xlink:href="#DejaVuSans-36"/>
      </g>
     </g>
    </g>
    <g id="xtick_5">
     <g id="line2d_5">
      <g>
       <use xlink:href="#m6357d434c2" x="352.108052" y="162.432" style="stroke: #000000; stroke-width: 0.8"/>
      </g>
     </g>
     <g id="text_5">
      <!-- 8 -->
      <g transform="translate(348.926802 177.030437) scale(0.1 -0.1)">
       <defs>
        <path id="DejaVuSans-38" d="M 2034 2216 
Q 1584 2216 1326 1975 
Q 1069 1734 1069 1313 
Q 1069 891 1326 650 
Q 1584 409 2034 409 
Q 2484 409 2743 651 
Q 3003 894 3003 1313 
Q 3003 1734 2745 1975 
Q 2488 2216 2034 2216 
z
M 1403 2484 
Q 997 2584 770 2862 
Q 544 3141 544 3541 
Q 544 4100 942 4425 
Q 1341 4750 2034 4750 
Q 2731 4750 3128 4425 
Q 3525 4100 3525 3541 
Q 3525 3141 3298 2862 
Q 3072 2584 2669 2484 
Q 3125 2378 3379 2068 
Q 3634 1759 3634 1313 
Q 3634 634 3220 271 
Q 2806 -91 2034 -91 
Q 1263 -91 848 271 
Q 434 634 434 1313 
Q 434 1759 690 2068 
Q 947 2378 1403 2484 
z
M 1172 3481 
Q 1172 3119 1398 2916 
Q 1625 2713 2034 2713 
Q 2441 2713 2670 2916 
Q 2900 3119 2900 3481 
Q 2900 3844 2670 4047 
Q 2441 4250 2034 4250 
Q 1625 4250 1398 4047 
Q 1172 3844 1172 3481 
z
" transform="scale(0.015625)"/>
       </defs>
       <use xlink:href="#DejaVuSans-38"/>
      </g>
     </g>
    </g>
   </g>
   <g id="matplotlib.axis_2">
    <g id="ytick_1">
     <g id="line2d_6">
      <defs>
       <path id="m0f1df15618" d="M 0 0 
L -3.5 0 
" style="stroke: #000000; stroke-width: 0.8"/>
      </defs>
      <g>
       <use xlink:href="#m0f1df15618" x="57.6" y="162.432" style="stroke: #000000; stroke-width: 0.8"/>
      </g>
     </g>
     <g id="text_6">
      <!-- 0 -->
      <g transform="translate(44.2375 166.231219) scale(0.1 -0.1)">
       <use xlink:href="#DejaVuSans-30"/>
      </g>
     </g>
    </g>
    <g id="ytick_2">
     <g id="line2d_7">
      <g>
       <use xlink:href="#m0f1df15618" x="57.6" y="136.832" style="stroke: #000000; stroke-width: 0.8"/>
      </g>
     </g>
     <g id="text_7">
      <!-- 2 -->
      <g transform="translate(44.2375 140.631219) scale(0.1 -0.1)">
       <use xlink:href="#DejaVuSans-32"/>
      </g>
     </g>
    </g>
    <g id="ytick_3">
     <g id="line2d_8">
      <g>
       <use xlink:href="#m0f1df15618" x="57.6" y="111.232" style="stroke: #000000; stroke-width: 0.8"/>
      </g>
     </g>
     <g id="text_8">
      <!-- 4 -->
      <g transform="translate(44.2375 115.031219) scale(0.1 -0.1)">
       <use xlink:href="#DejaVuSans-34"/>
      </g>
     </g>
    </g>
    <g id="ytick_4">
     <g id="line2d_9">
      <g>
       <use xlink:href="#m0f1df15618" x="57.6" y="85.632" style="stroke: #000000; stroke-width: 0.8"/>
      </g>
     </g>
     <g id="text_9">
      <!-- 6 -->
      <g transform="translate(44.2375 89.431219) scale(0.1 -0.1)">
       <use xlink:href="#DejaVuSans-36"/>
      </g>
     </g>
    </g>
    <g id="ytick_5">
     <g id="line2d_10">
      <g>
       <use xlink:href="#m0f1df15618" x="57.6" y="60.032" style="stroke: #000000; stroke-width: 0.8"/>
      </g>
     </g>
     <g id="text_10">
      <!-- 8 -->
      <g transform="translate(44.2375 63.831219) scale(0.1 -0.1)">
       <use xlink:href="#DejaVuSans-38"/>
      </g>
     </g>
    </g>
   </g>
   <g id="patch_13">
    <path d="M 57.6 162.432 
L 57.6 41.472 
" style="fill: none; stroke: #000000; stroke-width: 0.8; stroke-linejoin: miter; stroke-linecap: square"/>
   </g>
   <g id="patch_14">
    <path d="M 414.72 162.432 
L 414.72 41.472 
" style="fill: none; stroke: #000000; stroke-width: 0.8; stroke-linejoin: miter; stroke-linecap: square"/>
   </g>
   <g id="patch_15">
    <path d="M 57.6 162.432 
L 414.72 162.432 
" style="fill: none; stroke: #000000; stroke-width: 0.8; stroke-linejoin: miter; stroke-linecap: square"/>
   </g>
   <g id="patch_16">
    <path d="M 57.6 41.472 
L 414.72 41.472 
" style="fill: none; stroke: #000000; stroke-width: 0.8; stroke-linejoin: miter; stroke-linecap: square"/>
   </g>
  </g>
  <g id="axes_2">
   <g id="patch_17">
    <path d="M 57.6 307.584 
L 414.72 307.584 
L 414.72 186.624 
L 57.6 186.624 
z
" style="fill: #ffffff"/>
   </g>
   <g id="PathCollection_1">
    <defs>
     <path id="m5df37eaea0" d="M 0 3 
C 0.795609 3 1.55874 2.683901 2.12132 2.12132 
C 2.683901 1.55874 3 0.795609 3 0 
C 3 -0.795609 2.683901 -1.55874 2.12132 -2.12132 
C 1.55874 -2.683901 0.795609 -3 0 -3 
C -0.795609 -3 -1.55874 -2.683901 -2.12132 -2.12132 
C -2.683901 -1.55874 -3 -0.795609 -3 0 
C -3 0.795609 -2.683901 1.55874 -2.12132 2.12132 
C -1.55874 2.683901 -0.795609 3 0 3 
z
" style="stroke: #008000"/>
    </defs>
    <g clip-path="url(#pbf1d00e521)">
     <use xlink:href="#m5df37eaea0" x="73.832727" y="247.104269" style="fill: #008000; stroke: #008000"/>
     <use xlink:href="#m5df37eaea0" x="76.429964" y="241.61522" style="fill: #008000; stroke: #008000"/>
     <use xlink:href="#m5df37eaea0" x="79.0272" y="236.181015" style="fill: #008000; stroke: #008000"/>
     <use xlink:href="#m5df37eaea0" x="81.624436" y="230.855951" style="fill: #008000; stroke: #008000"/>
     <use xlink:href="#m5df37eaea0" x="84.221673" y="225.693236" style="fill: #008000; stroke: #008000"/>
     <use xlink:href="#m5df37eaea0" x="86.818909" y="220.744452" style="fill: #008000; stroke: #008000"/>
     <use xlink:href="#m5df37eaea0" x="89.416145" y="216.059047" style="fill: #008000; stroke: #008000"/>
     <use xlink:href="#m5df37eaea0" x="92.013382" y="211.683836" style="fill: #008000; stroke: #008000"/>
     <use xlink:href="#m5df37eaea0" x="94.610618" y="207.662534" style="fill: #008000; stroke: #008000"/>
     <use xlink:href="#m5df37eaea0" x="97.207855" y="204.035321" style="fill: #008000; stroke: #008000"/>
     <use xlink:href="#m5df37eaea0" x="99.805091" y="200.838438" style="fill: #008000; stroke: #008000"/>
     <use xlink:href="#m5df37eaea0" x="102.402327" y="198.103828" style="fill: #008000; stroke: #008000"/>
     <use xlink:href="#m5df37eaea0" x="104.999564" y="195.858815" style="fill: #008000; stroke: #008000"/>
     <use xlink:href="#m5df37eaea0" x="107.5968" y="194.125829" style="fill: #008000; stroke: #008000"/>
     <use xlink:href="#m5df37eaea0" x="110.194036" y="192.922186" style="fill: #008000; stroke: #008000"/>
     <use xlink:href="#m5df37eaea0" x="112.791273" y="192.259913" style="fill: #008000; stroke: #008000"/>
     <use xlink:href="#m5df37eaea0" x="115.388509" y="192.145626" style="fill: #008000; stroke: #008000"/>
     <use xlink:href="#m5df37eaea0" x="117.985745" y="192.580468" style="fill: #008000; stroke: #008000"/>
     <use xlink:href="#m5df37eaea0" x="120.582982" y="193.560094" style="fill: #008000; stroke: #008000"/>
     <use xlink:href="#m5df37eaea0" x="123.180218" y="195.074715" style="fill: #008000; stroke: #008000"/>
     <use xlink:href="#m5df37eaea0" x="125.777455" y="197.109199" style="fill: #008000; stroke: #008000"/>
     <use xlink:href="#m5df37eaea0" x="128.374691" y="199.643216" style="fill: #008000; stroke: #008000"/>
     <use xlink:href="#m5df37eaea0" x="130.971927" y="202.651449" style="fill: #008000; stroke: #008000"/>
     <use xlink:href="#m5df37eaea0" x="133.569164" y="206.10384" style="fill: #008000; stroke: #008000"/>
     <use xlink:href="#m5df37eaea0" x="136.1664" y="209.965894" style="fill: #008000; stroke: #008000"/>
     <use xlink:href="#m5df37eaea0" x="138.763636" y="214.199021" style="fill: #008000; stroke: #008000"/>
     <use xlink:href="#m5df37eaea0" x="141.360873" y="218.760928" style="fill: #008000; stroke: #008000"/>
     <use xlink:href="#m5df37eaea0" x="143.958109" y="223.606031" style="fill: #008000; stroke: #008000"/>
     <use xlink:href="#m5df37eaea0" x="146.555345" y="228.685921" style="fill: #008000; stroke: #008000"/>
     <use xlink:href="#m5df37eaea0" x="149.152582" y="233.949842" style="fill: #008000; stroke: #008000"/>
     <use xlink:href="#m5df37eaea0" x="151.749818" y="239.345197" style="fill: #008000; stroke: #008000"/>
     <use xlink:href="#m5df37eaea0" x="154.347055" y="244.818078" style="fill: #008000; stroke: #008000"/>
     <use xlink:href="#m5df37eaea0" x="156.944291" y="250.313801" style="fill: #008000; stroke: #008000"/>
     <use xlink:href="#m5df37eaea0" x="159.541527" y="255.777457" style="fill: #008000; stroke: #008000"/>
     <use xlink:href="#m5df37eaea0" x="162.138764" y="261.154452" style="fill: #008000; stroke: #008000"/>
     <use xlink:href="#m5df37eaea0" x="164.736" y="266.391063" style="fill: #008000; stroke: #008000"/>
     <use xlink:href="#m5df37eaea0" x="167.333236" y="271.434967" style="fill: #008000; stroke: #008000"/>
     <use xlink:href="#m5df37eaea0" x="169.930473" y="276.235766" style="fill: #008000; stroke: #008000"/>
     <use xlink:href="#m5df37eaea0" x="172.527709" y="280.745493" style="fill: #008000; stroke: #008000"/>
     <use xlink:href="#m5df37eaea0" x="175.124945" y="284.919088" style="fill: #008000; stroke: #008000"/>
     <use xlink:href="#m5df37eaea0" x="177.722182" y="288.71485" style="fill: #008000; stroke: #008000"/>
     <use xlink:href="#m5df37eaea0" x="180.319418" y="292.094853" style="fill: #008000; stroke: #008000"/>
     <use xlink:href="#m5df37eaea0" x="182.916655" y="295.025325" style="fill: #008000; stroke: #008000"/>
     <use xlink:href="#m5df37eaea0" x="185.513891" y="297.476985" style="fill: #008000; stroke: #008000"/>
     <use xlink:href="#m5df37eaea0" x="188.111127" y="299.425338" style="fill: #008000; stroke: #008000"/>
     <use xlink:href="#m5df37eaea0" x="190.708364" y="300.850916" style="fill: #008000; stroke: #008000"/>
     <use xlink:href="#m5df37eaea0" x="193.3056" y="301.739475" style="fill: #008000; stroke: #008000"/>
     <use xlink:href="#m5df37eaea0" x="195.902836" y="302.082137" style="fill: #008000; stroke: #008000"/>
     <use xlink:href="#m5df37eaea0" x="198.500073" y="301.875479" style="fill: #008000; stroke: #008000"/>
     <use xlink:href="#m5df37eaea0" x="201.097309" y="301.121565" style="fill: #008000; stroke: #008000"/>
     <use xlink:href="#m5df37eaea0" x="203.694545" y="299.827928" style="fill: #008000; stroke: #008000"/>
     <use xlink:href="#m5df37eaea0" x="206.291782" y="298.007493" style="fill: #008000; stroke: #008000"/>
     <use xlink:href="#m5df37eaea0" x="208.889018" y="295.67845" style="fill: #008000; stroke: #008000"/>
     <use xlink:href="#m5df37eaea0" x="211.486255" y="292.86407" style="fill: #008000; stroke: #008000"/>
     <use xlink:href="#m5df37eaea0" x="214.083491" y="289.592474" style="fill: #008000; stroke: #008000"/>
     <use xlink:href="#m5df37eaea0" x="216.680727" y="285.896349" style="fill: #008000; stroke: #008000"/>
     <use xlink:href="#m5df37eaea0" x="219.277964" y="281.812627" style="fill: #008000; stroke: #008000"/>
     <use xlink:href="#m5df37eaea0" x="221.8752" y="277.38211" style="fill: #008000; stroke: #008000"/>
     <use xlink:href="#m5df37eaea0" x="224.472436" y="272.649067" style="fill: #008000; stroke: #008000"/>
     <use xlink:href="#m5df37eaea0" x="227.069673" y="267.660789" style="fill: #008000; stroke: #008000"/>
     <use xlink:href="#m5df37eaea0" x="229.666909" y="262.467117" style="fill: #008000; stroke: #008000"/>
     <use xlink:href="#m5df37eaea0" x="232.264145" y="257.119944" style="fill: #008000; stroke: #008000"/>
     <use xlink:href="#m5df37eaea0" x="234.861382" y="251.672698" style="fill: #008000; stroke: #008000"/>
     <use xlink:href="#m5df37eaea0" x="237.458618" y="246.179806" style="fill: #008000; stroke: #008000"/>
     <use xlink:href="#m5df37eaea0" x="240.055855" y="240.696151" style="fill: #008000; stroke: #008000"/>
     <use xlink:href="#m5df37eaea0" x="242.653091" y="235.276523" style="fill: #008000; stroke: #008000"/>
     <use xlink:href="#m5df37eaea0" x="245.250327" y="229.975075" style="fill: #008000; stroke: #008000"/>
     <use xlink:href="#m5df37eaea0" x="247.847564" y="224.844776" style="fill: #008000; stroke: #008000"/>
     <use xlink:href="#m5df37eaea0" x="250.4448" y="219.936886" style="fill: #008000; stroke: #008000"/>
     <use xlink:href="#m5df37eaea0" x="253.042036" y="215.300444" style="fill: #008000; stroke: #008000"/>
     <use xlink:href="#m5df37eaea0" x="255.639273" y="210.981775" style="fill: #008000; stroke: #008000"/>
     <use xlink:href="#m5df37eaea0" x="258.236509" y="207.02403" style="fill: #008000; stroke: #008000"/>
     <use xlink:href="#m5df37eaea0" x="260.833745" y="203.466753" style="fill: #008000; stroke: #008000"/>
     <use xlink:href="#m5df37eaea0" x="263.430982" y="200.345489" style="fill: #008000; stroke: #008000"/>
     <use xlink:href="#m5df37eaea0" x="266.028218" y="197.691422" style="fill: #008000; stroke: #008000"/>
     <use xlink:href="#m5df37eaea0" x="268.625455" y="195.531073" style="fill: #008000; stroke: #008000"/>
     <use xlink:href="#m5df37eaea0" x="271.222691" y="193.886025" style="fill: #008000; stroke: #008000"/>
     <use xlink:href="#m5df37eaea0" x="273.819927" y="192.772717" style="fill: #008000; stroke: #008000"/>
     <use xlink:href="#m5df37eaea0" x="276.417164" y="192.202272" style="fill: #008000; stroke: #008000"/>
     <use xlink:href="#m5df37eaea0" x="279.0144" y="192.180389" style="fill: #008000; stroke: #008000"/>
     <use xlink:href="#m5df37eaea0" x="281.611636" y="192.707288" style="fill: #008000; stroke: #008000"/>
     <use xlink:href="#m5df37eaea0" x="284.208873" y="193.777703" style="fill: #008000; stroke: #008000"/>
     <use xlink:href="#m5df37eaea0" x="286.806109" y="195.38094" style="fill: #008000; stroke: #008000"/>
     <use xlink:href="#m5df37eaea0" x="289.403345" y="197.500979" style="fill: #008000; stroke: #008000"/>
     <use xlink:href="#m5df37eaea0" x="292.000582" y="200.116637" style="fill: #008000; stroke: #008000"/>
     <use xlink:href="#m5df37eaea0" x="294.597818" y="203.201781" style="fill: #008000; stroke: #008000"/>
     <use xlink:href="#m5df37eaea0" x="297.195055" y="206.725584" style="fill: #008000; stroke: #008000"/>
     <use xlink:href="#m5df37eaea0" x="299.792291" y="210.652837" style="fill: #008000; stroke: #008000"/>
     <use xlink:href="#m5df37eaea0" x="302.389527" y="214.944301" style="fill: #008000; stroke: #008000"/>
     <use xlink:href="#m5df37eaea0" x="304.986764" y="219.557097" style="fill: #008000; stroke: #008000"/>
     <use xlink:href="#m5df37eaea0" x="307.584" y="224.445135" style="fill: #008000; stroke: #008000"/>
     <use xlink:href="#m5df37eaea0" x="310.181236" y="229.559575" style="fill: #008000; stroke: #008000"/>
     <use xlink:href="#m5df37eaea0" x="312.778473" y="234.849316" style="fill: #008000; stroke: #008000"/>
     <use xlink:href="#m5df37eaea0" x="315.375709" y="240.261505" style="fill: #008000; stroke: #008000"/>
     <use xlink:href="#m5df37eaea0" x="317.972945" y="245.742065" style="fill: #008000; stroke: #008000"/>
     <use xlink:href="#m5df37eaea0" x="320.570182" y="251.236235" style="fill: #008000; stroke: #008000"/>
     <use xlink:href="#m5df37eaea0" x="323.167418" y="256.68912" style="fill: #008000; stroke: #008000"/>
     <use xlink:href="#m5df37eaea0" x="325.764655" y="262.046236" style="fill: #008000; stroke: #008000"/>
     <use xlink:href="#m5df37eaea0" x="328.361891" y="267.254057" style="fill: #008000; stroke: #008000"/>
     <use xlink:href="#m5df37eaea0" x="330.959127" y="272.260548" style="fill: #008000; stroke: #008000"/>
     <use xlink:href="#m5df37eaea0" x="333.556364" y="277.015686" style="fill: #008000; stroke: #008000"/>
     <use xlink:href="#m5df37eaea0" x="336.1536" y="281.471958" style="fill: #008000; stroke: #008000"/>
     <use xlink:href="#m5df37eaea0" x="338.750836" y="285.58484" style="fill: #008000; stroke: #008000"/>
     <use xlink:href="#m5df37eaea0" x="341.348073" y="289.313238" style="fill: #008000; stroke: #008000"/>
     <use xlink:href="#m5df37eaea0" x="343.945309" y="292.619897" style="fill: #008000; stroke: #008000"/>
     <use xlink:href="#m5df37eaea0" x="346.542545" y="295.471778" style="fill: #008000; stroke: #008000"/>
     <use xlink:href="#m5df37eaea0" x="349.139782" y="297.840388" style="fill: #008000; stroke: #008000"/>
     <use xlink:href="#m5df37eaea0" x="351.737018" y="299.702059" style="fill: #008000; stroke: #008000"/>
     <use xlink:href="#m5df37eaea0" x="354.334255" y="301.038191" style="fill: #008000; stroke: #008000"/>
     <use xlink:href="#m5df37eaea0" x="356.931491" y="301.835432" style="fill: #008000; stroke: #008000"/>
     <use xlink:href="#m5df37eaea0" x="359.528727" y="302.085818" style="fill: #008000; stroke: #008000"/>
     <use xlink:href="#m5df37eaea0" x="362.125964" y="301.786847" style="fill: #008000; stroke: #008000"/>
     <use xlink:href="#m5df37eaea0" x="364.7232" y="300.941505" style="fill: #008000; stroke: #008000"/>
     <use xlink:href="#m5df37eaea0" x="367.320436" y="299.558239" style="fill: #008000; stroke: #008000"/>
     <use xlink:href="#m5df37eaea0" x="369.917673" y="297.650871" style="fill: #008000; stroke: #008000"/>
     <use xlink:href="#m5df37eaea0" x="372.514909" y="295.238457" style="fill: #008000; stroke: #008000"/>
     <use xlink:href="#m5df37eaea0" x="375.112145" y="292.345103" style="fill: #008000; stroke: #008000"/>
     <use xlink:href="#m5df37eaea0" x="377.709382" y="288.999717" style="fill: #008000; stroke: #008000"/>
     <use xlink:href="#m5df37eaea0" x="380.306618" y="285.235726" style="fill: #008000; stroke: #008000"/>
     <use xlink:href="#m5df37eaea0" x="382.903855" y="281.090738" style="fill: #008000; stroke: #008000"/>
     <use xlink:href="#m5df37eaea0" x="385.501091" y="276.606168" style="fill: #008000; stroke: #008000"/>
     <use xlink:href="#m5df37eaea0" x="388.098327" y="271.826825" style="fill: #008000; stroke: #008000"/>
     <use xlink:href="#m5df37eaea0" x="390.695564" y="266.800463" style="fill: #008000; stroke: #008000"/>
     <use xlink:href="#m5df37eaea0" x="393.2928" y="261.577303" style="fill: #008000; stroke: #008000"/>
     <use xlink:href="#m5df37eaea0" x="395.890036" y="256.209532" style="fill: #008000; stroke: #008000"/>
     <use xlink:href="#m5df37eaea0" x="398.487273" y="250.750786" style="fill: #008000; stroke: #008000"/>
    </g>
   </g>
   <g id="matplotlib.axis_3">
    <g id="xtick_6">
     <g id="line2d_11">
      <g>
       <use xlink:href="#m6357d434c2" x="81.187719" y="307.584" style="stroke: #000000; stroke-width: 0.8"/>
      </g>
     </g>
     <g id="text_11">
      <!-- −6 -->
      <g transform="translate(73.816625 322.182437) scale(0.1 -0.1)">
       <defs>
        <path id="DejaVuSans-2212" d="M 678 2272 
L 4684 2272 
L 4684 1741 
L 678 1741 
L 678 2272 
z
" transform="scale(0.015625)"/>
       </defs>
       <use xlink:href="#DejaVuSans-2212"/>
       <use xlink:href="#DejaVuSans-36" x="83.789062"/>
      </g>
     </g>
    </g>
    <g id="xtick_7">
     <g id="line2d_12">
      <g>
       <use xlink:href="#m6357d434c2" x="133.132446" y="307.584" style="stroke: #000000; stroke-width: 0.8"/>
      </g>
     </g>
     <g id="text_12">
      <!-- −4 -->
      <g transform="translate(125.761353 322.182437) scale(0.1 -0.1)">
       <use xlink:href="#DejaVuSans-2212"/>
       <use xlink:href="#DejaVuSans-34" x="83.789062"/>
      </g>
     </g>
    </g>
    <g id="xtick_8">
     <g id="line2d_13">
      <g>
       <use xlink:href="#m6357d434c2" x="185.077174" y="307.584" style="stroke: #000000; stroke-width: 0.8"/>
      </g>
     </g>
     <g id="text_13">
      <!-- −2 -->
      <g transform="translate(177.70608 322.182437) scale(0.1 -0.1)">
       <use xlink:href="#DejaVuSans-2212"/>
       <use xlink:href="#DejaVuSans-32" x="83.789062"/>
      </g>
     </g>
    </g>
    <g id="xtick_9">
     <g id="line2d_14">
      <g>
       <use xlink:href="#m6357d434c2" x="237.021901" y="307.584" style="stroke: #000000; stroke-width: 0.8"/>
      </g>
     </g>
     <g id="text_14">
      <!-- 0 -->
      <g transform="translate(233.840651 322.182437) scale(0.1 -0.1)">
       <use xlink:href="#DejaVuSans-30"/>
      </g>
     </g>
    </g>
    <g id="xtick_10">
     <g id="line2d_15">
      <g>
       <use xlink:href="#m6357d434c2" x="288.966628" y="307.584" style="stroke: #000000; stroke-width: 0.8"/>
      </g>
     </g>
     <g id="text_15">
      <!-- 2 -->
      <g transform="translate(285.785378 322.182437) scale(0.1 -0.1)">
       <use xlink:href="#DejaVuSans-32"/>
      </g>
     </g>
    </g>
    <g id="xtick_11">
     <g id="line2d_16">
      <g>
       <use xlink:href="#m6357d434c2" x="340.911355" y="307.584" style="stroke: #000000; stroke-width: 0.8"/>
      </g>
     </g>
     <g id="text_16">
      <!-- 4 -->
      <g transform="translate(337.730105 322.182437) scale(0.1 -0.1)">
       <use xlink:href="#DejaVuSans-34"/>
      </g>
     </g>
    </g>
    <g id="xtick_12">
     <g id="line2d_17">
      <g>
       <use xlink:href="#m6357d434c2" x="392.856083" y="307.584" style="stroke: #000000; stroke-width: 0.8"/>
      </g>
     </g>
     <g id="text_17">
      <!-- 6 -->
      <g transform="translate(389.674833 322.182437) scale(0.1 -0.1)">
       <use xlink:href="#DejaVuSans-36"/>
      </g>
     </g>
    </g>
   </g>
   <g id="matplotlib.axis_4">
    <g id="ytick_6">
     <g id="line2d_18">
      <g>
       <use xlink:href="#m0f1df15618" x="57.6" y="302.086357" style="stroke: #000000; stroke-width: 0.8"/>
      </g>
     </g>
     <g id="text_18">
      <!-- −1.0 -->
      <g transform="translate(26.317187 305.885575) scale(0.1 -0.1)">
       <defs>
        <path id="DejaVuSans-31" d="M 794 531 
L 1825 531 
L 1825 4091 
L 703 3866 
L 703 4441 
L 1819 4666 
L 2450 4666 
L 2450 531 
L 3481 531 
L 3481 0 
L 794 0 
L 794 531 
z
" transform="scale(0.015625)"/>
        <path id="DejaVuSans-2e" d="M 684 794 
L 1344 794 
L 1344 0 
L 684 0 
L 684 794 
z
" transform="scale(0.015625)"/>
       </defs>
       <use xlink:href="#DejaVuSans-2212"/>
       <use xlink:href="#DejaVuSans-31" x="83.789062"/>
       <use xlink:href="#DejaVuSans-2e" x="147.412109"/>
       <use xlink:href="#DejaVuSans-30" x="179.199219"/>
      </g>
     </g>
    </g>
    <g id="ytick_7">
     <g id="line2d_19">
      <g>
       <use xlink:href="#m0f1df15618" x="57.6" y="274.595313" style="stroke: #000000; stroke-width: 0.8"/>
      </g>
     </g>
     <g id="text_19">
      <!-- −0.5 -->
      <g transform="translate(26.317187 278.394532) scale(0.1 -0.1)">
       <defs>
        <path id="DejaVuSans-35" d="M 691 4666 
L 3169 4666 
L 3169 4134 
L 1269 4134 
L 1269 2991 
Q 1406 3038 1543 3061 
Q 1681 3084 1819 3084 
Q 2600 3084 3056 2656 
Q 3513 2228 3513 1497 
Q 3513 744 3044 326 
Q 2575 -91 1722 -91 
Q 1428 -91 1123 -41 
Q 819 9 494 109 
L 494 744 
Q 775 591 1075 516 
Q 1375 441 1709 441 
Q 2250 441 2565 725 
Q 2881 1009 2881 1497 
Q 2881 1984 2565 2268 
Q 2250 2553 1709 2553 
Q 1456 2553 1204 2497 
Q 953 2441 691 2322 
L 691 4666 
z
" transform="scale(0.015625)"/>
       </defs>
       <use xlink:href="#DejaVuSans-2212"/>
       <use xlink:href="#DejaVuSans-30" x="83.789062"/>
       <use xlink:href="#DejaVuSans-2e" x="147.412109"/>
       <use xlink:href="#DejaVuSans-35" x="179.199219"/>
      </g>
     </g>
    </g>
    <g id="ytick_8">
     <g id="line2d_20">
      <g>
       <use xlink:href="#m0f1df15618" x="57.6" y="247.104269" style="stroke: #000000; stroke-width: 0.8"/>
      </g>
     </g>
     <g id="text_20">
      <!-- 0.0 -->
      <g transform="translate(34.696875 250.903488) scale(0.1 -0.1)">
       <use xlink:href="#DejaVuSans-30"/>
       <use xlink:href="#DejaVuSans-2e" x="63.623047"/>
       <use xlink:href="#DejaVuSans-30" x="95.410156"/>
      </g>
     </g>
    </g>
    <g id="ytick_9">
     <g id="line2d_21">
      <g>
       <use xlink:href="#m0f1df15618" x="57.6" y="219.613226" style="stroke: #000000; stroke-width: 0.8"/>
      </g>
     </g>
     <g id="text_21">
      <!-- 0.5 -->
      <g transform="translate(34.696875 223.412444) scale(0.1 -0.1)">
       <use xlink:href="#DejaVuSans-30"/>
       <use xlink:href="#DejaVuSans-2e" x="63.623047"/>
       <use xlink:href="#DejaVuSans-35" x="95.410156"/>
      </g>
     </g>
    </g>
    <g id="ytick_10">
     <g id="line2d_22">
      <g>
       <use xlink:href="#m0f1df15618" x="57.6" y="192.122182" style="stroke: #000000; stroke-width: 0.8"/>
      </g>
     </g>
     <g id="text_22">
      <!-- 1.0 -->
      <g transform="translate(34.696875 195.921401) scale(0.1 -0.1)">
       <use xlink:href="#DejaVuSans-31"/>
       <use xlink:href="#DejaVuSans-2e" x="63.623047"/>
       <use xlink:href="#DejaVuSans-30" x="95.410156"/>
      </g>
     </g>
    </g>
   </g>
   <g id="line2d_23">
    <path d="M 73.832727 192.122182 
L 76.429964 192.396863 
L 79.0272 193.218163 
L 81.624436 194.577875 
L 84.221673 196.462413 
L 86.818909 198.852948 
L 89.416145 201.725594 
L 92.013382 205.051649 
L 94.610618 208.79788 
L 97.207855 212.926856 
L 99.805091 217.397321 
L 102.402327 222.164608 
L 104.999564 227.181084 
L 107.5968 232.396625 
L 110.194036 237.759121 
L 112.791273 243.21499 
L 115.388509 248.70972 
L 117.985745 254.188408 
L 120.582982 259.596315 
L 123.180218 264.879404 
L 125.777455 269.984891 
L 128.374691 274.861762 
L 130.971927 279.461289 
L 133.569164 283.737516 
L 136.1664 287.647715 
L 138.763636 291.152818 
L 141.360873 294.217802 
L 143.958109 296.812043 
L 146.555345 298.90962 
L 149.152582 300.489576 
L 151.749818 301.536123 
L 154.347055 302.038805 
L 156.944291 301.9926 
L 159.541527 301.397968 
L 162.138764 300.260852 
L 164.736 298.592613 
L 167.333236 296.409919 
L 169.930473 293.734579 
L 172.527709 290.593325 
L 175.124945 287.017543 
L 177.722182 283.04296 
L 180.319418 278.70929 
L 182.916655 274.059833 
L 185.513891 269.141044 
L 188.111127 264.002072 
L 190.708364 258.694262 
L 193.3056 253.270649 
L 195.902836 247.785424 
L 198.500073 242.293392 
L 201.097309 236.84943 
L 203.694545 231.50793 
L 206.291782 226.322264 
L 208.889018 221.344245 
L 211.486255 216.623611 
L 214.083491 212.20753 
L 216.680727 208.140126 
L 219.277964 204.462038 
L 221.8752 201.210018 
L 224.472436 198.416558 
L 227.069673 196.109569 
L 229.666909 194.312103 
L 232.264145 193.042118 
L 234.861382 192.312305 
L 237.458618 192.129954 
L 240.055855 192.496889 
L 242.653091 193.409443 
L 245.250327 194.858498 
L 247.847564 196.829575 
L 250.4448 199.30298 
L 253.042036 202.254 
L 255.639273 205.65315 
L 258.236509 209.466465 
L 260.833745 213.655844 
L 263.430982 218.179429 
L 266.028218 222.992022 
L 268.625455 228.045536 
L 271.222691 233.289479 
L 273.819927 238.671454 
L 276.417164 244.137688 
L 279.0144 249.633562 
L 281.611636 255.104165 
L 284.208873 260.494835 
L 286.806109 265.751711 
L 289.403345 270.822269 
L 292.000582 275.655843 
L 294.597818 280.20414 
L 297.195055 284.421714 
L 299.792291 288.266425 
L 302.389527 291.699856 
L 304.986764 294.687704 
L 307.584 297.200113 
L 310.181236 299.211981 
L 312.778473 300.703206 
L 315.375709 301.658889 
L 317.972945 302.069479 
L 320.570182 301.930876 
L 323.167418 301.244463 
L 325.764655 300.017099 
L 328.361891 298.261048 
L 330.959127 295.993855 
L 333.556364 293.238173 
L 336.1536 290.021537 
L 338.750836 286.376086 
L 341.348073 282.338243 
L 343.945309 277.948355 
L 346.542545 273.250282 
L 349.139782 268.290967 
L 351.737018 263.119962 
L 354.334255 257.788933 
L 356.931491 252.351147 
L 359.528727 246.860935 
L 362.125964 241.373155 
L 364.7232 235.942638 
L 367.320436 230.623645 
L 369.917673 225.46932 
L 372.514909 220.531165 
L 375.112145 215.858519 
L 377.709382 211.498071 
L 380.306618 207.493388 
L 382.903855 203.884483 
L 385.501091 200.707417 
L 388.098327 197.993933 
L 390.695564 195.771143 
L 393.2928 194.061256 
L 395.890036 192.881358 
L 398.487273 192.243237 
" clip-path="url(#pbf1d00e521)" style="fill: none; stroke: #1f77b4; stroke-width: 1.5; stroke-linecap: square"/>
   </g>
   <g id="patch_18">
    <path d="M 57.6 307.584 
L 57.6 186.624 
" style="fill: none; stroke: #000000; stroke-width: 0.8; stroke-linejoin: miter; stroke-linecap: square"/>
   </g>
   <g id="patch_19">
    <path d="M 414.72 307.584 
L 414.72 186.624 
" style="fill: none; stroke: #000000; stroke-width: 0.8; stroke-linejoin: miter; stroke-linecap: square"/>
   </g>
   <g id="patch_20">
    <path d="M 57.6 307.584 
L 414.72 307.584 
" style="fill: none; stroke: #000000; stroke-width: 0.8; stroke-linejoin: miter; stroke-linecap: square"/>
   </g>
   <g id="patch_21">
    <path d="M 57.6 186.624 
L 414.72 186.624 
" style="fill: none; stroke: #000000; stroke-width: 0.8; stroke-linejoin: miter; stroke-linecap: square"/>
   </g>
  </g>
 </g>
 <defs>
  <clipPath id="p2f9eea9a9e">
   <rect x="57.6" y="41.472" width="357.12" height="120.96"/>
  </clipPath>
  <clipPath id="pbf1d00e521">
   <rect x="57.6" y="186.624" width="357.12" height="120.96"/>
  </clipPath>
 </defs>
</svg>
